<?xml version="1.0" encoding="iso-8859-1"?>
<!-- Generator: Adobe Illustrator 17.1.0, SVG Export Plug-In . SVG Version: 6.00 Build 0)  -->
<!DOCTYPE svg PUBLIC "-//W3C//DTD SVG 1.1//EN" "http://www.w3.org/Graphics/SVG/1.1/DTD/svg11.dtd">
<svg version="1.1" id="Capa_1" xmlns="http://www.w3.org/2000/svg" xmlns:xlink="http://www.w3.org/1999/xlink" x="0px" y="0px"
	 viewBox="0 0 442 442" style="enable-background:new 0 0 442 442;" xml:space="preserve">
<g>
	<path d="M120,216c19.299,0,35-15.701,35-35s-15.701-35-35-35s-35,15.701-35,35S100.701,216,120,216z M120,166
		c8.271,0,15,6.729,15,15s-6.729,15-15,15s-15-6.729-15-15S111.729,166,120,166z"/>
	<path d="M120,226c-33.084,0-60,26.916-60,60c0,5.523,4.477,10,10,10h100c5.523,0,10-4.477,10-10C180,252.916,153.084,226,120,226z
		 M81.266,276c4.451-17.233,20.13-30,38.734-30s34.283,12.767,38.734,30H81.266z"/>
	<path d="M422,73H20C8.972,73,0,81.972,0,93v256c0,11.028,8.972,20,20,20h402c11.028,0,20-8.972,20-20V93
		C442,81.972,433.028,73,422,73z M20,349V93h402l0.002,256H20z"/>
	<path d="M372,211H230c-5.522,0-10,4.477-10,10s4.478,10,10,10h142c5.522,0,10-4.477,10-10S377.522,211,372,211z"/>
	<path d="M250,261h-20c-5.522,0-10,4.477-10,10s4.478,10,10,10h20c5.522,0,10-4.477,10-10S255.522,261,250,261z"/>
	<path d="M372,261h-20c-5.522,0-10,4.477-10,10s4.478,10,10,10h20c5.522,0,10-4.477,10-10S377.522,261,372,261z"/>
	<path d="M311,261h-20c-5.522,0-10,4.477-10,10s4.478,10,10,10h20c5.522,0,10-4.477,10-10S316.522,261,311,261z"/>
	<path d="M230,181h71c5.522,0,10-4.477,10-10s-4.478-10-10-10h-71c-5.522,0-10,4.477-10,10S224.478,181,230,181z"/>
</g>
<g>
</g>
<g>
</g>
<g>
</g>
<g>
</g>
<g>
</g>
<g>
</g>
<g>
</g>
<g>
</g>
<g>
</g>
<g>
</g>
<g>
</g>
<g>
</g>
<g>
</g>
<g>
</g>
<g>
</g>
</svg>
