<?xml version="1.0" encoding="iso-8859-1"?>
<!-- Generator: Adobe Illustrator 18.1.1, SVG Export Plug-In . SVG Version: 6.00 Build 0)  -->
<svg version="1.1" id="Capa_1" xmlns="http://www.w3.org/2000/svg" xmlns:xlink="http://www.w3.org/1999/xlink" x="0px" y="0px"
	 viewBox="0 0 54.193 54.193" style="enable-background:new 0 0 54.193 54.193;" xml:space="preserve">
<g>
	<g>
		<path style="fill:#010002;" d="M41.86,5.101h-1.215V3.222c0-0.968-0.407-1.828-1.146-2.424c-0.9-0.725-2.187-0.97-3.53-0.678
			L13.112,5.101h-0.779c-2.505,0-4.543,2.038-4.543,4.543V49.65c0,2.505,2.038,4.543,4.543,4.543h29.525
			c2.506,0,4.545-2.038,4.545-4.543V9.644C46.403,7.139,44.365,5.101,41.86,5.101z M36.395,2.074
			c0.734-0.162,1.43-0.056,1.849,0.281c0.267,0.214,0.401,0.506,0.401,0.867v1.879h-16.14L36.395,2.074z M44.403,49.65
			c0,1.402-1.142,2.543-2.545,2.543H12.333c-1.402,0-2.543-1.141-2.543-2.543V9.644c0-1.402,1.141-2.543,2.543-2.543H41.86
			c1.402,0,2.543,1.141,2.543,2.543V49.65z"/>
		<path style="fill:#010002;" d="M33.851,24.043l-0.187-6.087c-0.034-1.143-0.99-2.045-2.133-2.011l-6.934,0.207
			c-0.472,0.015-0.825,0.143-1.051,0.384c-0.31,0.329-0.42,0.951,0.29,1.619l1.804,1.697c-2.097,1.021-6.79,3.788-8.714,8.71
			c-0.046,0.114-0.083,0.231-0.125,0.349c-0.09,0.252-0.175,0.508-0.249,0.771c-0.045,0.159-0.087,0.319-0.124,0.481
			c-0.029,0.12-0.067,0.233-0.093,0.358c-0.159,0.767-0.206,1.504-0.202,2.095c0,0.011-0.002,0.021-0.002,0.03
			c0,0.011,0.002,0.021,0.002,0.03c0.003,0.228,0.014,0.421,0.029,0.593c0.327,5.754,5.098,10.34,10.933,10.34
			c6.045,0,10.963-4.918,10.963-10.963C38.059,29.154,36.405,26.052,33.851,24.043z M17.298,32.602c0.009,0,0.017,0,0.026,0
			c-0.01,0.02-0.022,0.037-0.032,0.058C17.293,32.639,17.297,32.621,17.298,32.602z M17.513,35.945
			c-0.174-0.502-0.308-1.021-0.401-1.553c0.25-0.035,0.52-0.203,0.661-0.314c0.111-0.087,0.423-0.694,0.878-1.482h2.09
			c0.455,0,0.823,0.027,0.821,0.062C21.56,32.679,21.56,32.7,21.56,32.72c0.009,1.046,0.253,2.151,0.614,3.22
			c0.146,0.432-0.084,0.772-0.539,0.772h-2.997C18.183,36.713,17.661,36.376,17.513,35.945z M19.146,31.772
			c0.118-0.188,0.24-0.377,0.369-0.568c0.709-1.051,1.511-1.954,2.347-2.741c0.125,0.144,0.176,0.351,0.118,0.588
			c-0.148,0.597-0.256,1.234-0.324,1.9c-0.046,0.452-0.429,0.821-0.885,0.821H19.146z M25.405,42.639
			c-2.815-0.476-5.238-2.109-6.758-4.398c-0.252-0.379-0.059-0.703,0.396-0.703h2.938c0.455,0,0.975,0.337,1.181,0.742
			c0.52,1.027,1.086,1.918,1.562,2.533l0.992,1.278C25.995,42.45,25.853,42.713,25.405,42.639z M26.179,41.344l-0.803-1.035
			c-0.385-0.496-0.843-1.209-1.284-2.037c-0.214-0.401-0.004-0.734,0.451-0.734h1.317c0.455,0,0.823,0.367,0.823,0.822v2.812h0.001
			C26.684,41.627,26.458,41.703,26.179,41.344z M26.685,35.889c0,0.456-0.368,0.824-0.823,0.824h-1.688
			c-0.456,0-0.968-0.339-1.123-0.768c-0.388-1.074-0.657-2.195-0.666-3.232c0-0.02,0-0.039,0.002-0.059
			c0.002-0.032,0.37-0.06,0.825-0.06h2.65c0.455,0,0.823,0.368,0.823,0.823C26.685,33.417,26.685,35.889,26.685,35.889z
			 M25.862,31.772h-2.62c-0.455,0-0.808-0.369-0.759-0.82c0.074-0.678,0.193-1.317,0.355-1.908c0.119-0.438,0.618-0.785,1.073-0.785
			h1.95c0.455,0,0.823,0.369,0.823,0.824v1.865h0.001C26.685,31.402,26.317,31.772,25.862,31.772z M26.687,26.612
			c-0.001,0.454-0.369,0.823-0.824,0.823h-1.611c-0.375,0-0.565-0.229-0.497-0.528c1.017-0.729,2.022-1.3,2.932-1.742V26.612z
			 M17.794,31.766c-0.153-0.006-0.284-0.061-0.397-0.14c0.968-7.779,9.178-11.189,9.272-11.224l0.699-0.324l-0.689-0.688
			l-2.138-1.982c-0.084-0.079-0.138-0.147-0.171-0.197c0.052-0.015,0.135-0.03,0.259-0.033l6.932-0.209
			c0.578-0.017,1.061,0.439,1.079,1.018l0.211,6.932c0.004,0.123-0.006,0.206-0.019,0.26c-0.051-0.029-0.123-0.08-0.207-0.158
			l-2.416-2.275C30.123,22.763,21.929,24.642,17.794,31.766z M30.087,27.435H28.33c-0.455,0-0.822-0.368-0.822-0.823v-1.829
			c0.441-0.192,0.85-0.352,1.206-0.481c0.603,0.686,1.252,1.508,1.797,2.414C30.744,27.107,30.541,27.435,30.087,27.435z
			 M31.517,29.039c0.171,0.596,0.297,1.238,0.376,1.913c0.055,0.45-0.296,0.819-0.751,0.819h-2.81c-0.455,0-0.823-0.369-0.823-0.824
			v-1.865c0-0.455,0.368-0.824,0.823-0.824h2.102C30.889,28.258,31.392,28.602,31.517,29.039z M27.508,33.419
			c0-0.455,0.367-0.823,0.822-0.823h2.851c0.454,0,0.823,0.012,0.824,0.025c0,0.008,0.001,0.018,0.001,0.025
			c0,1.065-0.277,2.209-0.686,3.304c-0.16,0.426-0.678,0.763-1.133,0.763H28.33c-0.455,0-0.822-0.368-0.822-0.824
			C27.508,35.889,27.508,33.419,27.508,33.419z M27.51,41.206v-2.847c0-0.455,0.368-0.823,0.822-0.823h1.472
			c0.455,0,0.66,0.33,0.438,0.729c-0.455,0.814-0.931,1.523-1.342,2.036l-0.875,1.087C27.741,41.742,27.51,41.66,27.51,41.206z
			 M35.547,38.238c-1.516,2.283-3.932,3.916-6.736,4.396c-0.447,0.076-0.585-0.182-0.3-0.537l1.03-1.279
			c0.5-0.621,1.088-1.516,1.63-2.545c0.211-0.402,0.735-0.737,1.19-0.737h2.789C35.606,37.536,35.799,37.861,35.547,38.238z
			 M37.237,32.647c0,1.154-0.197,2.265-0.556,3.299c-0.147,0.431-0.67,0.768-1.125,0.768h-2.835c-0.456,0-0.682-0.34-0.529-0.77
			c0.385-1.094,0.641-2.228,0.641-3.297c0-0.01,0-0.019,0-0.025c-0.002-0.016,0.367-0.025,0.822-0.025h2.756
			c0.457,0,0.824,0.012,0.826,0.025C37.237,32.629,37.237,32.639,37.237,32.647z M36.55,29.014c0.239,0.62,0.422,1.27,0.536,1.94
			c0.076,0.448-0.264,0.817-0.719,0.817h-2.756c-0.455,0-0.843-0.369-0.892-0.82c-0.071-0.665-0.185-1.305-0.34-1.904
			c-0.114-0.439,0.132-0.789,0.587-0.789h2.431C35.853,28.258,36.385,28.589,36.55,29.014z M34.953,27.435h-2.319
			c-0.455,0-0.847-0.054-0.872-0.124c-0.016-0.041-0.032-0.082-0.051-0.121c-0.59-1.198-1.393-2.281-2.149-3.17
			c0.14-0.043,0.265-0.079,0.362-0.107l1.998,1.854c0.711,0.669,1.324,0.521,1.634,0.192c0.181-0.191,0.265-0.479,0.292-0.818
			c0.542,0.489,1.049,1.015,1.475,1.608C35.589,27.117,35.407,27.435,34.953,27.435z"/>
	</g>
</g>
<g>
</g>
<g>
</g>
<g>
</g>
<g>
</g>
<g>
</g>
<g>
</g>
<g>
</g>
<g>
</g>
<g>
</g>
<g>
</g>
<g>
</g>
<g>
</g>
<g>
</g>
<g>
</g>
<g>
</g>
</svg>
